<?xml version="1.0" standalone="no"?>
<!DOCTYPE svg PUBLIC "-//W3C//DTD SVG 20010904//EN"
 "http://www.w3.org/TR/2001/REC-SVG-20010904/DTD/svg10.dtd">
<svg version="1.0" xmlns="http://www.w3.org/2000/svg"
 width="80.000000pt" height="80.000000pt" viewBox="0 0 80.000000 80.000000"
 preserveAspectRatio="xMidYMid meet">
<metadata>
Created by potrace 1.14, written by Peter Selinger 2001-2017
</metadata>
<g transform="translate(0.000000,80.000000) scale(0.100000,-0.100000)"
fill="#000000" stroke="none">
<path d="M135 760 c-33 -11 -72 -30 -87 -42 -26 -22 -26 -25 -14 -59 29 -83
101 -160 164 -176 45 -11 95 9 113 45 12 24 19 29 26 20 16 -21 32 -70 39
-120 l6 -48 -111 0 -111 0 0 -50 c0 -35 4 -50 13 -50 9 0 20 -30 31 -92 24
-129 24 -131 25 -150 1 -16 16 -18 170 -18 l168 0 7 43 c24 154 39 217 52 217
10 0 14 14 14 50 l0 50 -119 0 -119 0 11 36 c6 20 27 54 48 77 l36 42 7 -32
c9 -39 26 -54 70 -60 78 -10 153 71 180 194 7 29 4 32 -39 53 -129 63 -287 17
-271 -79 3 -18 14 -40 25 -48 20 -14 20 -15 -17 -52 -20 -20 -42 -46 -49 -57
-11 -18 -12 -18 -13 6 0 14 -11 49 -25 78 -29 63 -29 62 -12 62 16 0 47 51 47
78 0 32 -45 77 -88 90 -55 17 -107 14 -177 -8z"/>
</g>
</svg>
